<mxfile host="Electron" modified="2023-09-28T08:11:03.781Z" agent="Mozilla/5.0 (Windows NT 10.0; Win64; x64) AppleWebKit/537.36 (KHTML, like Gecko) draw.io/21.7.5 Chrome/114.0.5735.289 Electron/25.8.1 Safari/537.36" etag="QGIqpn6zqxRfQwl_Zd2x" version="21.7.5" type="device">
  <diagram name="Page-1" id="tja42HOSOiQajD3rXUwZ">
    <mxGraphModel dx="1182" dy="690" grid="1" gridSize="10" guides="1" tooltips="1" connect="1" arrows="1" fold="1" page="1" pageScale="1" pageWidth="690" pageHeight="980" math="0" shadow="0">
      <root>
        <mxCell id="0" />
        <mxCell id="1" parent="0" />
        <mxCell id="dYnLl5Npb4Rf6cg5zZ06-7" style="edgeStyle=orthogonalEdgeStyle;rounded=0;orthogonalLoop=1;jettySize=auto;html=1;entryX=0.5;entryY=0;entryDx=0;entryDy=0;" edge="1" parent="1" source="dYnLl5Npb4Rf6cg5zZ06-1" target="dYnLl5Npb4Rf6cg5zZ06-2">
          <mxGeometry relative="1" as="geometry">
            <Array as="points">
              <mxPoint x="155" y="50" />
            </Array>
          </mxGeometry>
        </mxCell>
        <mxCell id="dYnLl5Npb4Rf6cg5zZ06-8" style="edgeStyle=orthogonalEdgeStyle;rounded=0;orthogonalLoop=1;jettySize=auto;html=1;entryX=0.5;entryY=0;entryDx=0;entryDy=0;" edge="1" parent="1">
          <mxGeometry relative="1" as="geometry">
            <mxPoint x="390" y="50" as="sourcePoint" />
            <mxPoint x="534.9999999999998" y="110" as="targetPoint" />
            <Array as="points">
              <mxPoint x="535" y="50" />
            </Array>
          </mxGeometry>
        </mxCell>
        <mxCell id="dYnLl5Npb4Rf6cg5zZ06-1" value="&lt;b&gt;CovILD data set&lt;br&gt;&lt;/b&gt;n = 140 participants,&lt;br&gt;n = 420 observations" style="rounded=1;whiteSpace=wrap;html=1;fillColor=#dae8fc;strokeColor=#6c8ebf;" vertex="1" parent="1">
          <mxGeometry x="250" y="20" width="140" height="60" as="geometry" />
        </mxCell>
        <mxCell id="dYnLl5Npb4Rf6cg5zZ06-10" style="edgeStyle=orthogonalEdgeStyle;rounded=0;orthogonalLoop=1;jettySize=auto;html=1;entryX=0;entryY=0.5;entryDx=0;entryDy=0;" edge="1" parent="1" source="dYnLl5Npb4Rf6cg5zZ06-2" target="dYnLl5Npb4Rf6cg5zZ06-9">
          <mxGeometry relative="1" as="geometry" />
        </mxCell>
        <mxCell id="dYnLl5Npb4Rf6cg5zZ06-2" value="&lt;b&gt;Modeling responses&lt;/b&gt;&lt;br&gt;&lt;ul&gt;&lt;li style=&quot;text-align: left;&quot;&gt;any LFT findings&lt;/li&gt;&lt;li style=&quot;text-align: left;&quot;&gt;DLCO &amp;lt; 80% reference&lt;/li&gt;&lt;li style=&quot;text-align: left;&quot;&gt;FVC &amp;lt; 80% reference&lt;/li&gt;&lt;li style=&quot;text-align: left;&quot;&gt;FEV1 &amp;lt; 80% reference&lt;/li&gt;&lt;li style=&quot;text-align: left;&quot;&gt;DLCO % reference&lt;/li&gt;&lt;li style=&quot;text-align: left;&quot;&gt;FVC % reference&lt;/li&gt;&lt;li style=&quot;text-align: left;&quot;&gt;FEV1 % reference&lt;/li&gt;&lt;/ul&gt;" style="rounded=1;whiteSpace=wrap;html=1;spacingLeft=-25;fillColor=#fff2cc;strokeColor=#d6b656;" vertex="1" parent="1">
          <mxGeometry x="60" y="90" width="190" height="150" as="geometry" />
        </mxCell>
        <mxCell id="dYnLl5Npb4Rf6cg5zZ06-11" style="edgeStyle=orthogonalEdgeStyle;rounded=0;orthogonalLoop=1;jettySize=auto;html=1;entryX=1;entryY=0.5;entryDx=0;entryDy=0;" edge="1" parent="1" source="dYnLl5Npb4Rf6cg5zZ06-6" target="dYnLl5Npb4Rf6cg5zZ06-9">
          <mxGeometry relative="1" as="geometry" />
        </mxCell>
        <mxCell id="dYnLl5Npb4Rf6cg5zZ06-6" value="&lt;div style=&quot;text-align: left;&quot;&gt;&lt;b style=&quot;background-color: initial;&quot;&gt;&lt;span style=&quot;white-space: pre;&quot;&gt;&#x9;&lt;/span&gt;Explanatory variables&lt;/b&gt;&lt;/div&gt;&lt;ul&gt;&lt;li style=&quot;text-align: left;&quot;&gt;demography, medical history, comorbidity&lt;/li&gt;&lt;li style=&quot;text-align: left;&quot;&gt;severity and treatment of acute COVID-19&lt;/li&gt;&lt;li style=&quot;text-align: left;&quot;&gt;follow-up after COVID-19 diagnosis&lt;/li&gt;&lt;li style=&quot;text-align: left;&quot;&gt;lung CT findings (GGO, consolidation, reticulation) and their severity (CTSS, AI opacity and high opacity)&lt;/li&gt;&lt;/ul&gt;" style="rounded=1;whiteSpace=wrap;html=1;spacingLeft=-10;fillColor=#fff2cc;strokeColor=#d6b656;" vertex="1" parent="1">
          <mxGeometry x="390" y="90" width="290" height="140" as="geometry" />
        </mxCell>
        <mxCell id="dYnLl5Npb4Rf6cg5zZ06-41" style="edgeStyle=orthogonalEdgeStyle;rounded=0;orthogonalLoop=1;jettySize=auto;html=1;exitX=0.5;exitY=1;exitDx=0;exitDy=0;entryX=0.5;entryY=0;entryDx=0;entryDy=0;" edge="1" parent="1" source="dYnLl5Npb4Rf6cg5zZ06-9" target="dYnLl5Npb4Rf6cg5zZ06-39">
          <mxGeometry relative="1" as="geometry" />
        </mxCell>
        <mxCell id="dYnLl5Npb4Rf6cg5zZ06-9" value="&lt;div style=&quot;text-align: left;&quot;&gt;&lt;b style=&quot;background-color: initial;&quot;&gt;&lt;span style=&quot;white-space: pre;&quot;&gt;&#x9;&lt;/span&gt;Modeling algorithms&lt;/b&gt;&lt;/div&gt;&lt;ul&gt;&lt;li style=&quot;text-align: left;&quot;&gt;Random Forest&lt;/li&gt;&lt;li style=&quot;text-align: left;&quot;&gt;Gradient Boosted Machines (GBM)&lt;/li&gt;&lt;li style=&quot;text-align: left;&quot;&gt;Neuronal Network&lt;/li&gt;&lt;li style=&quot;text-align: left;&quot;&gt;Support Vector Machines (SVM)&lt;/li&gt;&lt;/ul&gt;" style="rounded=1;whiteSpace=wrap;html=1;spacingLeft=-20;fillColor=#ffe6cc;strokeColor=#d79b00;" vertex="1" parent="1">
          <mxGeometry x="210" y="250" width="220" height="120" as="geometry" />
        </mxCell>
        <mxCell id="dYnLl5Npb4Rf6cg5zZ06-45" style="edgeStyle=orthogonalEdgeStyle;rounded=0;orthogonalLoop=1;jettySize=auto;html=1;exitX=0.5;exitY=1;exitDx=0;exitDy=0;" edge="1" parent="1" source="dYnLl5Npb4Rf6cg5zZ06-42" target="dYnLl5Npb4Rf6cg5zZ06-44">
          <mxGeometry relative="1" as="geometry" />
        </mxCell>
        <mxCell id="dYnLl5Npb4Rf6cg5zZ06-42" value="&lt;div style=&quot;text-align: left;&quot;&gt;&lt;b style=&quot;background-color: initial;&quot;&gt;&lt;span style=&quot;white-space: pre;&quot;&gt;&#x9;&lt;/span&gt;Evaluation of model performance&lt;/b&gt;&lt;/div&gt;&lt;div style=&quot;text-align: left;&quot;&gt;&lt;b style=&quot;background-color: initial;&quot;&gt;&lt;br&gt;&lt;/b&gt;&lt;/div&gt;&lt;div style=&quot;text-align: left;&quot;&gt;&lt;span style=&quot;background-color: initial;&quot;&gt;&lt;span style=&quot;white-space: pre;&quot;&gt;&#x9;&lt;/span&gt;Predictions in the training data set and cross-validation folds&lt;/span&gt;&lt;/div&gt;&lt;ul&gt;&lt;li style=&quot;text-align: left;&quot;&gt;classification models: Cohen&#39;s&amp;nbsp;κ, Brier score, accuracy, sensitivity, specificity, Youden&#39;s J&lt;/li&gt;&lt;li style=&quot;text-align: left;&quot;&gt;regression models: mean absolute error, pseudo-R&lt;sup&gt;2&lt;/sup&gt;, Spearman&#39;s&amp;nbsp;ρ for the predicted - observed correlation&lt;/li&gt;&lt;/ul&gt;" style="rounded=1;whiteSpace=wrap;html=1;spacingLeft=-10;fillColor=#f8cecc;strokeColor=#b85450;" vertex="1" parent="1">
          <mxGeometry x="140" y="590" width="360" height="150" as="geometry" />
        </mxCell>
        <mxCell id="dYnLl5Npb4Rf6cg5zZ06-43" style="edgeStyle=orthogonalEdgeStyle;rounded=0;orthogonalLoop=1;jettySize=auto;html=1;exitX=0.5;exitY=1;exitDx=0;exitDy=0;" edge="1" parent="1" source="dYnLl5Npb4Rf6cg5zZ06-39" target="dYnLl5Npb4Rf6cg5zZ06-42">
          <mxGeometry relative="1" as="geometry" />
        </mxCell>
        <mxCell id="dYnLl5Npb4Rf6cg5zZ06-44" value="&lt;div style=&quot;text-align: left;&quot;&gt;&lt;b style=&quot;background-color: initial;&quot;&gt;&lt;span style=&quot;white-space: pre;&quot;&gt;&#x9;&lt;/span&gt;Interpretation&lt;/b&gt;&lt;/div&gt;&lt;ul&gt;&lt;li style=&quot;text-align: left;&quot;&gt;global explanatory variable importance via Shapley additive explanations (SHAP)&lt;/li&gt;&lt;li style=&quot;text-align: left;&quot;&gt;univariable analysis of explanatory factors via statistical hypothesis testing&lt;/li&gt;&lt;/ul&gt;" style="rounded=1;whiteSpace=wrap;html=1;fillColor=#d5e8d4;strokeColor=#82b366;" vertex="1" parent="1">
          <mxGeometry x="140" y="760" width="360" height="110" as="geometry" />
        </mxCell>
        <mxCell id="dYnLl5Npb4Rf6cg5zZ06-39" value="&lt;p style=&quot;line-height: 150%;&quot;&gt;&lt;b style=&quot;&quot;&gt;Model tuning and training&lt;/b&gt;&lt;br&gt;participant-wise 10-repeats 10-fold cross-validation&lt;/p&gt;" style="rounded=1;whiteSpace=wrap;html=1;align=left;spacingLeft=19;verticalAlign=top;spacingTop=-8;spacing=0;fillColor=#ffe6cc;strokeColor=#d79b00;" vertex="1" parent="1">
          <mxGeometry x="50" y="390" width="540" height="180" as="geometry" />
        </mxCell>
        <mxCell id="dYnLl5Npb4Rf6cg5zZ06-38" value="" style="group" vertex="1" connectable="0" parent="1">
          <mxGeometry x="70" y="436" width="500" height="124" as="geometry" />
        </mxCell>
        <mxCell id="dYnLl5Npb4Rf6cg5zZ06-12" value="Test patients" style="rounded=0;whiteSpace=wrap;html=1;fillColor=#f8cecc;strokeColor=#b85450;fontSize=8;fontStyle=0" vertex="1" parent="dYnLl5Npb4Rf6cg5zZ06-38">
          <mxGeometry x="45" y="4" width="65" height="20" as="geometry" />
        </mxCell>
        <mxCell id="dYnLl5Npb4Rf6cg5zZ06-17" value="Training patients" style="rounded=0;whiteSpace=wrap;html=1;fillColor=#dae8fc;strokeColor=#6c8ebf;fontStyle=0;fontSize=8;container=0;" vertex="1" parent="dYnLl5Npb4Rf6cg5zZ06-38">
          <mxGeometry x="110" y="4" width="390" height="20" as="geometry" />
        </mxCell>
        <mxCell id="dYnLl5Npb4Rf6cg5zZ06-18" value="Training patients" style="rounded=0;whiteSpace=wrap;html=1;fillColor=#dae8fc;strokeColor=#6c8ebf;fontStyle=0;fontSize=8;" vertex="1" parent="dYnLl5Npb4Rf6cg5zZ06-38">
          <mxGeometry x="45" y="29" width="65" height="20" as="geometry" />
        </mxCell>
        <mxCell id="dYnLl5Npb4Rf6cg5zZ06-19" value="Training patients" style="rounded=0;whiteSpace=wrap;html=1;fillColor=#dae8fc;strokeColor=#6c8ebf;fontStyle=0;fontSize=8;" vertex="1" parent="dYnLl5Npb4Rf6cg5zZ06-38">
          <mxGeometry x="45" y="54" width="135" height="20" as="geometry" />
        </mxCell>
        <mxCell id="dYnLl5Npb4Rf6cg5zZ06-21" value="Training patients" style="rounded=0;whiteSpace=wrap;html=1;fillColor=#dae8fc;strokeColor=#6c8ebf;fontStyle=0;fontSize=8;" vertex="1" parent="dYnLl5Npb4Rf6cg5zZ06-38">
          <mxGeometry x="45" y="99" width="385" height="20" as="geometry" />
        </mxCell>
        <mxCell id="dYnLl5Npb4Rf6cg5zZ06-22" value="Training patients" style="rounded=0;whiteSpace=wrap;html=1;fillColor=#dae8fc;strokeColor=#6c8ebf;fontStyle=0;fontSize=8;" vertex="1" parent="dYnLl5Npb4Rf6cg5zZ06-38">
          <mxGeometry x="180" y="29" width="320" height="20" as="geometry" />
        </mxCell>
        <mxCell id="dYnLl5Npb4Rf6cg5zZ06-23" value="Training patients" style="rounded=0;whiteSpace=wrap;html=1;fillColor=#dae8fc;strokeColor=#6c8ebf;fontStyle=0;fontSize=8;" vertex="1" parent="dYnLl5Npb4Rf6cg5zZ06-38">
          <mxGeometry x="250" y="54" width="250" height="20" as="geometry" />
        </mxCell>
        <mxCell id="dYnLl5Npb4Rf6cg5zZ06-25" value="&lt;span style=&quot;font-weight: normal; font-size: 12px;&quot;&gt;Fold 1&lt;/span&gt;" style="text;html=1;strokeColor=none;fillColor=none;align=left;verticalAlign=middle;whiteSpace=wrap;rounded=0;fontStyle=1;fontSize=12;" vertex="1" parent="dYnLl5Npb4Rf6cg5zZ06-38">
          <mxGeometry width="60" height="30" as="geometry" />
        </mxCell>
        <mxCell id="dYnLl5Npb4Rf6cg5zZ06-26" value="&lt;span style=&quot;font-weight: normal;&quot;&gt;Fold 2&lt;/span&gt;" style="text;html=1;strokeColor=none;fillColor=none;align=left;verticalAlign=middle;whiteSpace=wrap;rounded=0;fontStyle=1;fontSize=12;" vertex="1" parent="dYnLl5Npb4Rf6cg5zZ06-38">
          <mxGeometry y="24" width="60" height="30" as="geometry" />
        </mxCell>
        <mxCell id="dYnLl5Npb4Rf6cg5zZ06-29" value="Fold 10" style="text;html=1;strokeColor=none;fillColor=none;align=left;verticalAlign=middle;whiteSpace=wrap;rounded=0;fontStyle=0;fontSize=12;" vertex="1" parent="dYnLl5Npb4Rf6cg5zZ06-38">
          <mxGeometry y="94" width="60" height="30" as="geometry" />
        </mxCell>
        <mxCell id="dYnLl5Npb4Rf6cg5zZ06-32" value="Fold 3" style="text;html=1;strokeColor=none;fillColor=none;align=left;verticalAlign=middle;whiteSpace=wrap;rounded=0;fontStyle=0;fontSize=12;" vertex="1" parent="dYnLl5Npb4Rf6cg5zZ06-38">
          <mxGeometry y="49" width="60" height="30" as="geometry" />
        </mxCell>
        <mxCell id="dYnLl5Npb4Rf6cg5zZ06-35" value="Test patients" style="rounded=0;whiteSpace=wrap;html=1;fillColor=#f8cecc;strokeColor=#b85450;fontSize=8;fontStyle=0" vertex="1" parent="dYnLl5Npb4Rf6cg5zZ06-38">
          <mxGeometry x="110" y="29" width="70" height="20" as="geometry" />
        </mxCell>
        <mxCell id="dYnLl5Npb4Rf6cg5zZ06-36" value="Test patients" style="rounded=0;whiteSpace=wrap;html=1;fillColor=#f8cecc;strokeColor=#b85450;fontSize=8;fontStyle=0" vertex="1" parent="dYnLl5Npb4Rf6cg5zZ06-38">
          <mxGeometry x="180" y="54" width="70" height="20" as="geometry" />
        </mxCell>
        <mxCell id="dYnLl5Npb4Rf6cg5zZ06-37" value="Test patients" style="rounded=0;whiteSpace=wrap;html=1;fillColor=#f8cecc;strokeColor=#b85450;fontSize=8;fontStyle=0" vertex="1" parent="dYnLl5Npb4Rf6cg5zZ06-38">
          <mxGeometry x="430" y="99" width="70" height="20" as="geometry" />
        </mxCell>
      </root>
    </mxGraphModel>
  </diagram>
</mxfile>
